# xmcd
# Copyright (C) 1995-1998 Ti Kan
#
# Track frame offsets:
#       150
#       14935
#       34730
#       49727
#       69450
#       84525
#       102000
#       116035
#       139575
#       156975
#       172950
#       192910
#
# Disc length: 2770 seconds
#
# Revision: 0
# Processed by: cddbd v1.5.1PL0 Copyright (c) Steve Scherf et al.
# Submitted via: CD-Transfer v1.0
#
DISCID=a10ad00c
DTITLE=Wonderspleen - 
DYEAR=00
DGENRE=
TTITLE0=Elle signe
TTITLE1=Midi 02
TTITLE2=Sahra
TTITLE3=Il sent
TTITLE4=It's OK
TTITLE5=Fais comme si de rien
TTITLE6=Restons seuls
TTITLE7=Mandragore
TTITLE8=Et quand le moindre
TTITLE9=I miss you
TTITLE10=Androgyne
TTITLE11=Cyril
EXTD=
EXTT0=
EXTT1=
EXTT2=
EXTT3=
EXTT4=
EXTT5=
EXTT6=
EXTT7=
EXTT8=
EXTT9=
EXTT10=
EXTT11=
PLAYORDER=
